<?xml version="1.0" encoding="UTF-8" standalone="no"?>
<!-- <svg width="1200" height="600" xmlns="http://www.w3.org/2000/svg"> -->
<svg xmlns="http://www.w3.org/2000/svg" viewBox="60 110 1050 260">
 <rect x="60" y="60" width="1050" height="500" fill="#fff"/>
  
  <!-- Input label -->
  <text x="140" y="190" text-anchor="middle" font-family="Arial" font-size="18" font-weight="bold" fill="#0066cc">Flight Input Data</text>
  
  <!-- VAE ENCODER SECTION -->
  <rect x="220" y="120" width="220" height="200" fill="#ffe6e6" stroke="#cc3333" stroke-width="2" rx="8" ry="8"/>
  <text x="330" y="145" text-anchor="middle" font-family="Arial" font-size="16" font-weight="bold" fill="#cc3333">VAE Encoder</text>
  
  <!-- Tokenizer component -->
  <rect x="240" y="165" width="180" height="60" fill="#ffffff" stroke="#cc3333" stroke-width="1" rx="5" ry="5"/>
  <text x="330" y="185" text-anchor="middle" font-family="Arial" font-size="13" font-weight="bold">Column-wise Tokenizer</text>
  <text x="330" y="205" text-anchor="middle" font-family="Arial" font-size="11">Embeddings for both categorical</text>
  <text x="330" y="220" text-anchor="middle" font-family="Arial" font-size="11">and numerical features</text>
  
  <!-- Transformer component -->
  <rect x="240" y="240" width="180" height="60" fill="#ffffff" stroke="#cc3333" stroke-width="1" rx="5" ry="5"/>
  <text x="330" y="260" text-anchor="middle" font-family="Arial" font-size="13" font-weight="bold">Transformer Encoder</text>
  <text x="330" y="280" text-anchor="middle" font-family="Arial" font-size="11">Captures inter-column relations</text>
  <text x="330" y="295" text-anchor="middle" font-family="Arial" font-size="11">through self-attention</text>
  
  <!-- LATENT SPACE SECTION -->
  <rect x="460" y="120" width="200" height="240" fill="#e6f0ff" stroke="#3366cc" stroke-width="2" rx="8" ry="8"/>
  <text x="560" y="145" text-anchor="middle" font-family="Arial" font-size="16" font-weight="bold" fill="#3366cc">Latent Space</text>
  
  <!-- Embedding representation -->
  <rect x="480" y="165" width="160" height="50" fill="#ffffff" stroke="#3366cc" stroke-width="1" rx="5" ry="5"/>
  <text x="560" y="185" text-anchor="middle" font-family="Arial" font-size="13" font-weight="bold">Continuous Embeddings</text>
  <text x="560" y="205" text-anchor="middle" font-family="Arial" font-size="11">μ, σ (reparameterization trick)</text>
  
  <!-- Diffusion model -->
  <rect x="480" y="230" width="160" height="110" fill="#ffffff" stroke="#3366cc" stroke-width="1" rx="5" ry="5"/>
  <text x="560" y="250" text-anchor="middle" font-family="Arial" font-size="13" font-weight="bold">Diffusion Model</text>
  <text x="560" y="270" text-anchor="middle" font-family="Arial" font-size="11">Score-based denoising</text>
  <text x="560" y="290" text-anchor="middle" font-family="Arial" font-size="11">with linear noise schedule</text>
  <text x="560" y="310" text-anchor="middle" font-family="Arial" font-size="11">ε(t) = t (optimal for sampling)</text>
  <text x="560" y="330" text-anchor="middle" font-family="Arial" font-size="11">Less than 20 reverse steps</text>
  
  <!-- VAE DECODER SECTION -->
  <rect x="680" y="120" width="220" height="200" fill="#e6ffe6" stroke="#339933" stroke-width="2" rx="8" ry="8"/>
  <text x="790" y="145" text-anchor="middle" font-family="Arial" font-size="16" font-weight="bold" fill="#339933">VAE Decoder</text>
  
  <!-- Transformer decoder component -->
  <rect x="700" y="165" width="180" height="60" fill="#ffffff" stroke="#339933" stroke-width="1" rx="5" ry="5"/>
  <text x="790" y="185" text-anchor="middle" font-family="Arial" font-size="13" font-weight="bold">Transformer Decoder</text>
  <text x="790" y="205" text-anchor="middle" font-family="Arial" font-size="11">Reconstructs token-level</text>
  <text x="790" y="220" text-anchor="middle" font-family="Arial" font-size="11">representations</text>
  
  <!-- Detokenizer component -->
  <rect x="700" y="240" width="180" height="60" fill="#ffffff" stroke="#339933" stroke-width="1" rx="5" ry="5"/>
  <text x="790" y="260" text-anchor="middle" font-family="Arial" font-size="13" font-weight="bold">Column Detokenizer</text>
  <text x="790" y="280" text-anchor="middle" font-family="Arial" font-size="11">Converts embeddings back to</text>
  <text x="790" y="295" text-anchor="middle" font-family="Arial" font-size="11">original data types</text>
  
  <!-- Output label -->
  <text x="1000" y="190" text-anchor="middle" font-family="Arial" font-size="18" font-weight="bold" fill="#0066cc">Synthetic Flight Data</text>
  
  <!-- Connection Arrows - Simple lines -->
  <!-- Input to encoder -->
  <line x1="190" y1="200" x2="225" y2="200" stroke="#555555" stroke-width="2"/>
  <polygon points="220,195 230,200 220,205" fill="#555555"/>
  
  <!-- Within encoder -->
  <line x1="330" y1="225" x2="330" y2="245" stroke="#cc3333" stroke-width="2"/>
  <polygon points="325,240 330,250 335,240" fill="#cc3333"/>
  
  <!-- Encoder to latent -->
  <line x1="440" y1="220" x2="465" y2="220" stroke="#555555" stroke-width="2"/>
  <polygon points="460,215 470,220 460,225" fill="#555555"/>
  
  <!-- Within latent -->
  <line x1="560" y1="215" x2="560" y2="233" stroke="#3366cc" stroke-width="2"/>
  <polygon points="555,230 560,240 565,230" fill="#3366cc"/>
  
  <!-- Latent to decoder -->
  <line x1="660" y1="220" x2="685" y2="220" stroke="#555555" stroke-width="2"/>
  <polygon points="680,215 690,220 680,225" fill="#555555"/>
  
  <!-- Within decoder -->
  <line x1="790" y1="225" x2="790" y2="245" stroke="#339933" stroke-width="2"/>
  <polygon points="785,240 790,250 795,240" fill="#339933"/>
  
  <!-- Decoder to output -->
  <line x1="900" y1="200" x2="930" y2="200" stroke="#555555" stroke-width="2"/>
  <polygon points="925,195 935,200 925,205" fill="#555555"/>
  
</svg>